# xmcd CD database file
#
# Track frame offsets:
#	150
#	17445
#	36040
#	56105
#	74263
#	94813
#	114803
#	134903
#	154970
#	173348
#	196268
#	215685
#
# Disc length: 3137 seconds
#
# Revision: 0
# Processed by: cddbd v1.5.1PL0 Copyright (c) Steve Scherf et al.
# Submitted via: CDex 1.50
#
DISCID=a30c3f0c
DTITLE=Various Artist - Fiesta Latina 2002
DYEAR=2002
DGENRE=Salsa
TTITLE0=Quisiera - Juan Luis Guerra
TTITLE1=Que Alguien Me Diga - Gilberto Santa Rosa
TTITLE2=Tu Me Provocas - Tonny Tun Tun
TTITLE3=Mi Sol, Mi Luna - Elvis Crespo
TTITLE4=Que Venga - Los Hermanos Rosario
TTITLE5=Me Enloqueces - Mickey Taveras
TTITLE6=Me Da Lo Mismo - Victor Manuel
TTITLE7=Noches De Fantasia - Joseph Fonesca
TTITLE8=Yo Si Me Enamore - Huey Dunbar
TTITLE9=A Mi Me Gusta - Los Hermanos Rosario
TTITLE10=Bomba - Joseph Fonesca
TTITLE11=Mi Historia Entre Tus Dedos - Mickey Taveras
EXTD=YEAR: 2002
EXTT0=
EXTT1=
EXTT2=
EXTT3=
EXTT4=
EXTT5=
EXTT6=
EXTT7=
EXTT8=
EXTT9=
EXTT10=
EXTT11=
PLAYORDER=
